# xmcd
#
# Track frame offsets: 
#        150
#        9104
#        21099
#        31949
#        41899
#        53501
#        63114
#        74572
#        83462
#        92152
#        103865
#        114458
#        125483
#        134165
#        142548
#        153475
#        164218
#        176033
#        186353
#        197038
#        209523
#        220883
#        232476
#        241608
#        252068
#        262231
#        273273
#        284725
#        294690
#        304377
#        314327
#        324424
#
# Disc length: 4429 seconds
#
# Revision: 0
# Processed by: cddbd v1.5.2PL0 Copyright (c) Steve Scherf et al.
# Submitted via: ExactAudioCopyFreeDBPlugin 1.0
#
DISCID=e9114b20
DTITLE=Wynn Stewart - Come On: Gonna Shake The Shack Tonight
DYEAR=2011
DGENRE=Country
TTITLE0=Come On (alternate version)
TTITLE1=After All
TTITLE2=It's Not The Moon That Makes The Difference
TTITLE3=Slowly But Surely (& Eddie Cochran)
TTITLE4=That Just Kills Me
TTITLE5=Why Do I Love You So
TTITLE6=I Wish I Could Say The Same
TTITLE7=She Just Tears Me Up
TTITLE8=School Bus Love Affair (alternate version)
TTITLE9=Donna On My Mind
TTITLE10=I Keep Forgettin' That I Forgot About You
TTITLE11=We'll Never Love Again (& Jan Howard)
TTITLE12=I Done Done It
TTITLE13=Rain, Rain
TTITLE14=Big, Big Love
TTITLE15=Playboy
TTITLE16=Hold Back Tomorrow
TTITLE17=Wrong Company (& Jan Howard)
TTITLE18=Three Cheers For The Loser
TTITLE19=Wishful Thinking
TTITLE20=You're That Someone Else
TTITLE21=Heartaches For A Dime
TTITLE22=Man, Man, Mr. Sandman
TTITLE23=Slightly Used
TTITLE24=Open Up My Heart (basic track)
TTITLE25=Wall To Wall Heartaches
TTITLE26=Another Day, Another Dollar
TTITLE27=Take It Or Leave It
TTITLE28=Uncle Tom Got Caught
TTITLE29=Don't Spook Me
TTITLE30=Come On (master)
TTITLE31=(Jackie Burns) Wild One
EXTD=
EXTT0=
EXTT1=
EXTT2=
EXTT3=
EXTT4=
EXTT5=
EXTT6=
EXTT7=
EXTT8=
EXTT9=
EXTT10=
EXTT11=
EXTT12=
EXTT13=
EXTT14=
EXTT15=
EXTT16=
EXTT17=
EXTT18=
EXTT19=
EXTT20=
EXTT21=
EXTT22=
EXTT23=
EXTT24=
EXTT25=
EXTT26=
EXTT27=
EXTT28=
EXTT29=
EXTT30=
EXTT31=
PLAYORDER=
